<?xml version="1.0" encoding="UTF-8" standalone="no"?>
<!DOCTYPE svg PUBLIC "-//W3C//DTD SVG 1.1//EN" "http://www.w3.org/Graphics/SVG/1.1/DTD/svg11.dtd">
<svg width="100%" height="100%" viewBox="0 0 185 185" version="1.1" xmlns="http://www.w3.org/2000/svg" xmlns:xlink="http://www.w3.org/1999/xlink" xml:space="preserve" xmlns:serif="http://www.serif.com/" style="fill-rule:evenodd;clip-rule:evenodd;stroke-linejoin:round;stroke-miterlimit:2;">
    <g transform="matrix(0.0618329,0,0,0.0618329,2.05368,20.1523)">
        <g transform="matrix(10.1521,0,0,10.1521,875.404,632.075)">
            <g transform="matrix(1,0,0,1,-89.5,-92)">
                <g transform="matrix(0.1,0,0,-0.1,0,184)">
                    <path d="M1740,773C1757.67,821.167 1754,879 1739,935C1724,991 1685,1038 1634,1063L1590,1084L1590,1830L200,1830L200,1085L154,1055C48,985 12,855 67,745C87,706 138,652 173,634L200,619L200,90L1590,90L1590,358L1591,625L1633,646C1680,669 1722.33,724.833 1740,773Z" style="fill:rgb(255,37,37);fill-rule:nonzero;"/>
                </g>
            </g>
        </g>
        <g transform="matrix(10.2825,0,0,10.2825,884.298,-325.861)">
            <path d="M42.328,145.193L42.328,143.906L45.651,143.906L45.651,146.948C45.328,147.26 44.86,147.536 44.247,147.773C43.635,148.011 43.014,148.13 42.385,148.13C41.587,148.13 40.891,147.963 40.297,147.628C39.703,147.293 39.257,146.813 38.958,146.19C38.66,145.567 38.51,144.889 38.51,144.156C38.51,143.361 38.677,142.655 39.01,142.036C39.344,141.418 39.832,140.944 40.474,140.615C40.964,140.361 41.573,140.234 42.302,140.234C43.25,140.234 43.99,140.433 44.523,140.831C45.056,141.228 45.399,141.778 45.552,142.479L44.021,142.766C43.913,142.391 43.711,142.095 43.414,141.878C43.117,141.661 42.747,141.552 42.302,141.552C41.628,141.552 41.093,141.766 40.695,142.193C40.298,142.62 40.099,143.253 40.099,144.094C40.099,145 40.3,145.68 40.703,146.133C41.106,146.586 41.634,146.813 42.286,146.813C42.609,146.813 42.933,146.749 43.258,146.622C43.582,146.496 43.861,146.342 44.094,146.161L44.094,145.193L42.328,145.193Z" style="fill:white;fill-rule:nonzero;"/>
            <path d="M47.089,148L47.089,140.365L48.589,140.365L51.714,145.464L51.714,140.365L53.146,140.365L53.146,148L51.599,148L48.521,143.021L48.521,148L47.089,148Z" style="fill:white;fill-rule:nonzero;"/>
            <path d="M54.771,140.365L57.589,140.365C58.224,140.365 58.708,140.413 59.042,140.51C59.49,140.642 59.873,140.877 60.193,141.214C60.512,141.55 60.755,141.963 60.922,142.451C61.089,142.938 61.172,143.54 61.172,144.255C61.172,144.884 61.094,145.425 60.938,145.88C60.747,146.436 60.474,146.885 60.12,147.229C59.852,147.49 59.491,147.693 59.036,147.839C58.696,147.946 58.241,148 57.672,148L54.771,148L54.771,140.365ZM56.313,141.656L56.313,146.714L57.464,146.714C57.894,146.714 58.205,146.689 58.396,146.641C58.646,146.578 58.853,146.472 59.018,146.323C59.183,146.174 59.318,145.928 59.422,145.586C59.526,145.244 59.578,144.778 59.578,144.188C59.578,143.597 59.526,143.144 59.422,142.828C59.318,142.512 59.172,142.266 58.984,142.089C58.797,141.911 58.559,141.792 58.271,141.729C58.056,141.681 57.634,141.656 57.005,141.656L56.313,141.656Z" style="fill:white;fill-rule:nonzero;"/>
        </g>
        <g transform="matrix(10.2825,0,0,10.2825,-41.1302,-325.915)">
            <g transform="matrix(1,0,0,1,-1,0)">
                <rect x="42" y="73" width="9" height="19"/>
            </g>
            <g transform="matrix(0.75,0,0,1,12.5,0)">
                <rect x="38" y="73" width="12" height="4" style="fill:rgb(179,179,179);"/>
            </g>
            <g transform="matrix(0.75,0,0,1,12.5,15)">
                <rect x="38" y="73" width="12" height="4" style="fill:rgb(179,179,179);"/>
            </g>
        </g>
        <g transform="matrix(10.2825,0,0,10.2825,-41.1302,49.3979)">
            <g transform="matrix(1,0,0,1,-1,0)">
                <rect x="42" y="73" width="9" height="19" style="fill:rgb(139,136,100);"/>
            </g>
            <g transform="matrix(0.75,0,0,1,12.5,0)">
                <rect x="38" y="73" width="12" height="4" style="fill:rgb(179,179,179);"/>
            </g>
            <g transform="matrix(0.75,0,0,1,12.5,15)">
                <rect x="38" y="73" width="12" height="4" style="fill:rgb(179,179,179);"/>
            </g>
        </g>
        <g transform="matrix(10.2825,0,0,10.2825,894.581,90.528)">
            <g transform="matrix(1,0,0,1,-1,0)">
                <rect x="42" y="73" width="9" height="19" style="fill:rgb(139,136,100);"/>
            </g>
            <g transform="matrix(0.75,0,0,1,12.5,0)">
                <rect x="38" y="73" width="12" height="4" style="fill:rgb(179,179,179);"/>
            </g>
            <g transform="matrix(0.75,0,0,1,12.5,15)">
                <rect x="38" y="73" width="12" height="4" style="fill:rgb(179,179,179);"/>
            </g>
        </g>
        <g transform="matrix(10.2825,0,0,10.2825,894.581,-356.762)">
            <g transform="matrix(1,0,0,1,-1,0)">
                <rect x="42" y="73" width="9" height="19"/>
            </g>
            <g transform="matrix(0.75,0,0,1,12.5,0)">
                <rect x="38" y="73" width="12" height="4" style="fill:rgb(179,179,179);"/>
            </g>
            <g transform="matrix(0.75,0,0,1,12.5,15)">
                <rect x="38" y="73" width="12" height="4" style="fill:rgb(179,179,179);"/>
            </g>
        </g>
        <g transform="matrix(10.2825,0,0,10.2825,-41.1302,-325.915)">
            <rect x="37" y="151" width="20" height="19" style="fill:rgb(138,138,138);"/>
        </g>
        <g transform="matrix(11.9963,0,0,11.9963,-167.948,-560.699)">
            <circle cx="77" cy="158" r="9" style="fill:rgb(138,138,138);"/>
        </g>
        <g transform="matrix(11.9963,0,0,11.9963,145.669,-560.699)">
            <circle cx="77" cy="158" r="9" style="fill:rgb(138,138,138);"/>
        </g>
        <g transform="matrix(11.9963,0,0,11.9963,474.711,-560.699)">
            <circle cx="77" cy="158" r="9" style="fill:rgb(138,138,138);"/>
        </g>
        <g transform="matrix(11.7515,0,0,11.7515,-121.922,-532.3)">
            <circle cx="48" cy="158" r="7"/>
        </g>
        <g transform="matrix(11.7515,0,0,11.7515,191.696,-522.017)">
            <circle cx="48" cy="158" r="7"/>
        </g>
        <g transform="matrix(11.7515,0,0,11.7515,505.313,-522.017)">
            <circle cx="48" cy="158" r="7"/>
        </g>
        <g transform="matrix(11.7515,0,0,11.7515,834.355,-522.017)">
            <circle cx="48" cy="158" r="7"/>
        </g>
        <g transform="matrix(10.2825,0,0,10.2825,-30.8476,-325.915)">
            <rect x="65" y="86" width="11" height="6" style="fill:rgb(138,138,138);"/>
        </g>
        <g transform="matrix(10.2825,0,0,10.2825,-41.1302,-192.242)">
            <rect x="65" y="86" width="11" height="6" style="fill:rgb(138,138,138);"/>
        </g>
        <g transform="matrix(10.2825,0,0,10.2825,-30.8476,-192.242)">
            <rect x="65" y="86" width="11" height="6" style="fill:rgb(138,138,138);"/>
        </g>
        <g transform="matrix(10.2825,0,0,10.2825,-30.8476,-58.5688)">
            <rect x="65" y="86" width="11" height="6" style="fill:rgb(138,138,138);"/>
        </g>
        <g transform="matrix(10.2825,0,0,10.2825,-30.8476,64.8217)">
            <rect x="65" y="86" width="11" height="6" style="fill:rgb(138,138,138);"/>
        </g>
        <g transform="matrix(10.2825,0,0,10.2825,421.584,-325.915)">
            <rect x="65" y="86" width="11" height="6" style="fill:rgb(138,138,138);"/>
        </g>
        <g transform="matrix(10.2825,0,0,10.2825,421.584,-192.242)">
            <rect x="65" y="86" width="11" height="6" style="fill:rgb(138,138,138);"/>
        </g>
        <g transform="matrix(10.2825,0,0,10.2825,421.584,-58.5688)">
            <rect x="65" y="86" width="11" height="6" style="fill:rgb(138,138,138);"/>
        </g>
        <g transform="matrix(10.2825,0,0,10.2825,421.584,64.8217)">
            <rect x="65" y="86" width="11" height="6" style="fill:rgb(138,138,138);"/>
        </g>
        <g transform="matrix(10.2825,0,0,10.2825,-41.1302,-325.915)">
            <rect x="35" y="14" width="24" height="7" style="fill:rgb(138,138,138);"/>
        </g>
        <g transform="matrix(10.2825,0,0,10.2825,-41.1302,-99.6989)">
            <rect x="35" y="14" width="24" height="7" style="fill:rgb(138,138,138);"/>
        </g>
        <g transform="matrix(10.2825,0,0,10.2825,-41.1302,126.517)">
            <rect x="35" y="14" width="24" height="7" style="fill:rgb(138,138,138);"/>
        </g>
        <g transform="matrix(10.2825,0,0,10.2825,-41.1302,126.517)">
            <rect x="35" y="14" width="24" height="7" style="fill:rgb(138,138,138);"/>
        </g>
        <g transform="matrix(10.2825,0,0,10.2825,843.168,126.517)">
            <rect x="35" y="14" width="24" height="7" style="fill:rgb(138,138,138);"/>
        </g>
        <g transform="matrix(10.2825,0,0,10.2825,843.168,-99.6989)">
            <rect x="35" y="14" width="24" height="7" style="fill:rgb(138,138,138);"/>
        </g>
        <g transform="matrix(10.2825,0,0,10.2825,843.168,-325.915)">
            <rect x="35" y="14" width="24" height="7" style="fill:rgb(138,138,138);"/>
        </g>
        <g transform="matrix(10.2825,0,0,10.2825,-41.1302,-325.915)">
            <rect x="59" y="9" width="63" height="61"/>
        </g>
        <g transform="matrix(10.2825,0,0,10.2825,-41.1302,-325.915)">
            <rect x="77" y="86" width="33" height="45"/>
        </g>
        <g transform="matrix(12.8532,0,0,10.2825,-244.21,-315.632)">
            <ellipse cx="81" cy="89.5" rx="2" ry="2.5" style="fill:rgb(51,51,51);"/>
        </g>
        <g transform="matrix(12.702,0,0,12.702,-272.79,-421.482)">
            <circle cx="91.5" cy="39.5" r="8.5" style="fill:rgb(51,51,51);"/>
        </g>
        <g transform="matrix(9.67768,0,0,9.67768,3.93156,-302.023)">
            <circle cx="91.5" cy="39.5" r="8.5"/>
        </g>
        <g transform="matrix(10.2825,0,0,10.2825,-71.9778,-325.915)">
            <path d="M40.724,148L37.995,140.365L39.667,140.365L41.599,146.016L43.469,140.365L45.104,140.365L42.37,148L40.724,148Z" style="fill:white;fill-rule:nonzero;"/>
            <path d="M50.776,145.193L52.271,145.667C52.042,146.5 51.661,147.119 51.128,147.523C50.595,147.928 49.918,148.13 49.099,148.13C48.085,148.13 47.252,147.784 46.599,147.091C45.946,146.398 45.62,145.451 45.62,144.25C45.62,142.979 45.948,141.992 46.604,141.289C47.26,140.586 48.123,140.234 49.193,140.234C50.127,140.234 50.885,140.51 51.469,141.063C51.816,141.389 52.076,141.858 52.25,142.469L50.724,142.833C50.634,142.438 50.445,142.125 50.159,141.896C49.872,141.667 49.524,141.552 49.115,141.552C48.549,141.552 48.089,141.755 47.737,142.161C47.385,142.568 47.208,143.226 47.208,144.135C47.208,145.101 47.382,145.788 47.729,146.198C48.076,146.608 48.528,146.813 49.083,146.813C49.493,146.813 49.845,146.682 50.141,146.422C50.436,146.161 50.648,145.752 50.776,145.193Z" style="fill:white;fill-rule:nonzero;"/>
            <path d="M58.479,145.193L59.974,145.667C59.745,146.5 59.364,147.119 58.831,147.523C58.298,147.928 57.622,148.13 56.802,148.13C55.788,148.13 54.955,147.784 54.302,147.091C53.649,146.398 53.323,145.451 53.323,144.25C53.323,142.979 53.651,141.992 54.307,141.289C54.964,140.586 55.826,140.234 56.896,140.234C57.83,140.234 58.589,140.51 59.172,141.063C59.519,141.389 59.78,141.858 59.953,142.469L58.427,142.833C58.337,142.438 58.148,142.125 57.862,141.896C57.576,141.667 57.227,141.552 56.818,141.552C56.252,141.552 55.793,141.755 55.44,142.161C55.088,142.568 54.911,143.226 54.911,144.135C54.911,145.101 55.085,145.788 55.432,146.198C55.78,146.608 56.231,146.813 56.786,146.813C57.196,146.813 57.549,146.682 57.844,146.422C58.139,146.161 58.351,145.752 58.479,145.193Z" style="fill:white;fill-rule:nonzero;"/>
        </g>
        <g transform="matrix(10.2825,0,0,10.2825,247.049,-325.915)">
            <path d="M38.464,144.229C38.464,143.451 38.58,142.799 38.813,142.271C38.986,141.882 39.223,141.533 39.523,141.224C39.824,140.915 40.153,140.686 40.51,140.536C40.986,140.335 41.535,140.234 42.156,140.234C43.281,140.234 44.181,140.583 44.857,141.281C45.532,141.979 45.87,142.95 45.87,144.193C45.87,145.425 45.535,146.39 44.865,147.086C44.194,147.782 43.299,148.13 42.177,148.13C41.042,148.13 40.139,147.784 39.469,147.091C38.799,146.398 38.464,145.444 38.464,144.229ZM40.052,144.177C40.052,145.042 40.252,145.697 40.651,146.143C41.05,146.589 41.557,146.813 42.172,146.813C42.786,146.813 43.291,146.591 43.685,146.148C44.079,145.706 44.276,145.042 44.276,144.156C44.276,143.281 44.084,142.628 43.701,142.198C43.317,141.767 42.807,141.552 42.172,141.552C41.536,141.552 41.024,141.77 40.635,142.206C40.247,142.641 40.052,143.299 40.052,144.177Z" style="fill:white;fill-rule:nonzero;"/>
            <path d="M47.063,140.365L48.604,140.365L48.604,144.5C48.604,145.156 48.623,145.582 48.661,145.776C48.727,146.089 48.885,146.339 49.133,146.529C49.381,146.718 49.72,146.813 50.151,146.813C50.589,146.813 50.918,146.723 51.141,146.544C51.363,146.365 51.497,146.146 51.542,145.885C51.587,145.625 51.609,145.193 51.609,144.589L51.609,140.365L53.151,140.365L53.151,144.375C53.151,145.292 53.109,145.939 53.026,146.318C52.943,146.696 52.789,147.016 52.565,147.276C52.341,147.536 52.042,147.744 51.667,147.898C51.292,148.053 50.802,148.13 50.198,148.13C49.469,148.13 48.916,148.046 48.539,147.878C48.162,147.709 47.865,147.49 47.646,147.221C47.427,146.952 47.283,146.67 47.214,146.375C47.113,145.938 47.063,145.292 47.063,144.438L47.063,140.365Z" style="fill:white;fill-rule:nonzero;"/>
            <path d="M56.495,148L56.495,141.656L54.229,141.656L54.229,140.365L60.297,140.365L60.297,141.656L58.036,141.656L58.036,148L56.495,148Z" style="fill:white;fill-rule:nonzero;"/>
        </g>
        <g transform="matrix(10.2825,0,0,10.2825,565.7,-325.915)">
            <path d="M38.385,145.516L39.885,145.37C39.976,145.873 40.159,146.243 40.435,146.479C40.711,146.715 41.083,146.833 41.552,146.833C42.049,146.833 42.423,146.728 42.674,146.518C42.926,146.308 43.052,146.063 43.052,145.781C43.052,145.601 42.999,145.447 42.893,145.32C42.787,145.194 42.602,145.083 42.339,144.99C42.158,144.927 41.747,144.816 41.104,144.656C40.278,144.451 39.698,144.2 39.365,143.901C38.896,143.481 38.661,142.969 38.661,142.365C38.661,141.976 38.772,141.612 38.992,141.273C39.213,140.935 39.53,140.677 39.945,140.5C40.36,140.323 40.861,140.234 41.448,140.234C42.406,140.234 43.128,140.444 43.612,140.865C44.096,141.285 44.351,141.845 44.375,142.547L42.833,142.615C42.767,142.222 42.626,141.94 42.409,141.768C42.192,141.596 41.866,141.51 41.432,141.51C40.984,141.51 40.634,141.602 40.38,141.786C40.217,141.905 40.135,142.063 40.135,142.26C40.135,142.441 40.212,142.595 40.365,142.724C40.559,142.887 41.031,143.057 41.781,143.234C42.531,143.411 43.086,143.595 43.445,143.784C43.805,143.973 44.086,144.232 44.289,144.56C44.492,144.888 44.594,145.293 44.594,145.776C44.594,146.214 44.472,146.623 44.229,147.005C43.986,147.387 43.642,147.671 43.198,147.857C42.753,148.043 42.2,148.135 41.536,148.135C40.571,148.135 39.83,147.912 39.313,147.466C38.795,147.02 38.486,146.37 38.385,145.516Z" style="fill:white;fill-rule:nonzero;"/>
            <path d="M50.776,145.193L52.271,145.667C52.042,146.5 51.661,147.119 51.128,147.523C50.595,147.928 49.918,148.13 49.099,148.13C48.085,148.13 47.252,147.784 46.599,147.091C45.946,146.398 45.62,145.451 45.62,144.25C45.62,142.979 45.948,141.992 46.604,141.289C47.26,140.586 48.123,140.234 49.193,140.234C50.127,140.234 50.885,140.51 51.469,141.063C51.816,141.389 52.076,141.858 52.25,142.469L50.724,142.833C50.634,142.438 50.445,142.125 50.159,141.896C49.872,141.667 49.524,141.552 49.115,141.552C48.549,141.552 48.089,141.755 47.737,142.161C47.385,142.568 47.208,143.226 47.208,144.135C47.208,145.101 47.382,145.788 47.729,146.198C48.076,146.608 48.528,146.813 49.083,146.813C49.493,146.813 49.845,146.682 50.141,146.422C50.436,146.161 50.648,145.752 50.776,145.193Z" style="fill:white;fill-rule:nonzero;"/>
            <path d="M53.615,148L53.615,140.365L55.156,140.365L55.156,143.755L58.271,140.365L60.344,140.365L57.469,143.339L60.5,148L58.505,148L56.406,144.417L55.156,145.693L55.156,148L53.615,148Z" style="fill:white;fill-rule:nonzero;"/>
        </g>
        <g transform="matrix(10.2825,0,0,10.2825,-82.2603,-300.208)">
            <circle cx="28" cy="97" r="12"/>
        </g>
        <g transform="matrix(10.2825,0,0,10.2825,1264.75,-300.208)">
            <circle cx="28" cy="97" r="12"/>
        </g>
        <g transform="matrix(10.2825,0,0,10.2825,-41.1302,-325.915)">
            <path d="M20,0L158,0" style="fill:none;"/>
        </g>
    </g>
</svg>
